<svg width="509" height="475" viewBox="0 0 509 475" fill="none" xmlns="http://www.w3.org/2000/svg">
<g clip-path="url(#clip0_169_536)">
<path d="M0.000482632 252.271V253.597C-0.0965599 312.573 14.3749 394.905 102.938 408.813C218.928 427.05 279.095 285.061 337.745 290.945C367.779 293.96 402.217 297.948 429.935 286.994C454.879 276.907 476.046 259.247 490.465 236.491C537.24 162.329 490.817 81.055 405.395 37.798C291.395 -19.8415 127.854 -15.8903 54.8416 80.1067C16.6554 130.318 0.340131 193.416 0.000482632 252.271Z" fill="#10A37F"/>
<path opacity="0.7" d="M0.000482632 252.271V253.597C-0.0965599 312.573 14.3749 394.905 102.938 408.813C218.928 427.05 279.095 285.061 337.745 290.945C367.779 293.96 402.217 297.948 429.935 286.994C454.879 276.907 476.046 259.247 490.465 236.491C537.24 162.329 490.817 81.055 405.395 37.798C291.395 -19.8415 127.854 -15.8903 54.8416 80.1067C16.6554 130.318 0.340131 193.416 0.000482632 252.271Z" fill="white"/>
<path d="M65.5636 195.082H59.6077C56.4398 195.08 53.3027 195.704 50.3755 196.918C47.4483 198.132 44.7885 199.912 42.5479 202.157C40.3073 204.401 38.5299 207.066 37.3173 209.999C36.1046 212.933 35.4805 216.076 35.4805 219.251V351.879C35.4805 355.054 36.1046 358.198 37.3173 361.131C38.5299 364.065 40.3073 366.73 42.5479 368.974C44.7885 371.219 47.4483 372.999 50.3755 374.213C53.3027 375.427 56.4398 376.05 59.6077 376.049H141.378C147.774 376.049 153.908 373.502 158.43 368.97C162.952 364.437 165.493 358.29 165.493 351.879" stroke="#263238" stroke-linecap="round" stroke-linejoin="round" stroke-dasharray="4 4"/>
<path d="M158.785 69.9307V43.7309C158.785 39.8036 160.342 36.0371 163.113 33.26C165.883 30.483 169.641 28.9229 173.56 28.9229H279.894C283.812 28.9261 287.568 30.4872 290.338 33.2636C293.108 36.0399 294.666 39.8045 294.669 43.7309" stroke="#263238" stroke-linecap="round" stroke-linejoin="round" stroke-dasharray="4 4"/>
<path d="M254.496 475C367.039 475 458.273 461.795 458.273 445.505C458.273 429.216 367.039 416.011 254.496 416.011C141.953 416.011 50.7188 429.216 50.7188 445.505C50.7188 461.795 141.953 475 254.496 475Z" fill="#10A37F"/>
<path opacity="0.5" d="M254.496 475C367.039 475 458.273 461.795 458.273 445.505C458.273 429.216 367.039 416.011 254.496 416.011C141.953 416.011 50.7188 429.216 50.7188 445.505C50.7188 461.795 141.953 475 254.496 475Z" fill="white"/>
<path d="M453.031 105.079V303.553C453.031 310.04 450.46 316.262 445.883 320.849C441.306 325.437 435.098 328.014 428.625 328.014H80.3638C73.893 328.011 67.6883 325.432 63.1138 320.845C58.5394 316.258 55.9697 310.038 55.9697 303.553V105.079C55.9634 104.503 55.9877 103.926 56.0425 103.352C56.4687 97.1896 59.208 91.4172 63.7092 87.1969C68.2104 82.9765 74.1394 80.6214 80.3031 80.6055H428.564C434.738 80.6089 440.68 82.9581 445.194 87.1795C449.707 91.4008 452.456 97.1802 452.886 103.352C452.965 103.925 453.013 104.501 453.031 105.079Z" fill="white" stroke="#263238" stroke-linecap="round" stroke-linejoin="round"/>
<path d="M67.8442 112.531H442.392V295.845C442.392 301.926 439.981 307.758 435.691 312.058C431.401 316.358 425.582 318.774 419.514 318.774H90.7098C87.7054 318.774 84.7305 318.181 81.9549 317.029C79.1792 315.876 76.6572 314.187 74.5328 312.058C72.4084 309.929 70.7232 307.401 69.5735 304.619C68.4238 301.837 67.832 298.856 67.832 295.845V112.531H67.8442Z" fill="#263238"/>
<path opacity="0.2" d="M442.404 112.52V295.845C442.433 301.89 440.066 307.699 435.824 311.996C431.583 316.293 425.812 318.727 419.781 318.762H90.455C84.4249 318.727 78.6556 316.293 74.4156 311.995C70.1755 307.698 67.8118 301.889 67.8441 295.845V112.52H442.404Z" fill="white"/>
<path d="M452.947 103.353H56.043C56.4692 97.1896 59.2085 91.4173 63.7097 87.1969C68.2109 82.9766 74.1399 80.6215 80.3036 80.6055H428.565C434.749 80.5936 440.706 82.9359 445.233 87.1587C449.759 91.3816 452.516 97.1697 452.947 103.353Z" fill="#10A37F" stroke="#263238" stroke-miterlimit="10"/>
<path d="M104.809 92.0098C104.809 92.8658 104.555 93.7026 104.081 94.4143C103.606 95.1261 102.932 95.6809 102.143 96.0084C101.354 96.336 100.485 96.4217 99.6478 96.2547C98.8101 96.0877 98.0406 95.6755 97.4367 95.0702C96.8328 94.4649 96.4215 93.6937 96.2549 92.8541C96.0882 92.0146 96.1738 91.1443 96.5006 90.3535C96.8274 89.5626 97.3809 88.8866 98.0911 88.4111C98.8013 87.9355 99.6362 87.6816 100.49 87.6816C101.636 87.6816 102.734 88.1376 103.544 88.9493C104.354 89.761 104.809 90.8619 104.809 92.0098Z" fill="#263238"/>
<path d="M123.086 92.0098C123.086 92.8658 122.833 93.7026 122.358 94.4143C121.884 95.1261 121.209 95.6809 120.42 96.0084C119.631 96.336 118.763 96.4217 117.925 96.2547C117.087 96.0877 116.318 95.6755 115.714 95.0702C115.11 94.4649 114.699 93.6937 114.532 92.8541C114.366 92.0146 114.451 91.1443 114.778 90.3535C115.105 89.5626 115.658 88.8866 116.368 88.4111C117.079 87.9355 117.914 87.6816 118.768 87.6816C119.913 87.6816 121.011 88.1376 121.821 88.9493C122.631 89.761 123.086 90.8619 123.086 92.0098Z" fill="#263238"/>
<path d="M141.368 92.0098C141.37 92.8692 141.118 93.7101 140.643 94.4257C140.168 95.1413 139.492 95.6995 138.7 96.0295C137.909 96.3595 137.037 96.4465 136.196 96.2794C135.355 96.1123 134.582 95.6987 133.975 95.091C133.369 94.4832 132.956 93.7088 132.79 92.8657C132.623 92.0226 132.71 91.1489 133.039 90.3554C133.368 89.5618 133.925 88.8841 134.639 88.4081C135.353 87.9321 136.192 87.6793 137.05 87.6817C138.195 87.6817 139.293 88.1376 140.103 88.9493C140.913 89.761 141.368 90.8619 141.368 92.0098Z" fill="#263238"/>
<path d="M442.394 112.531V295.845C442.394 298.86 441.801 301.845 440.648 304.63C439.495 307.416 437.806 309.945 435.676 312.075C433.547 314.205 431.019 315.893 428.238 317.042C425.456 318.192 422.476 318.78 419.468 318.774H90.7363C85.4411 318.773 80.3103 316.93 76.2198 313.56C72.1293 310.19 69.3327 305.501 68.3074 300.294C68.0244 298.848 67.8823 297.379 67.8828 295.905V112.531H442.394Z" stroke="#263238" stroke-miterlimit="10"/>
<path d="M442.042 140.883C440.437 139.983 438.731 139.277 436.959 138.78L434.909 129.576H426.176L424.138 138.78C422.36 139.269 420.649 139.976 419.043 140.883L411.158 135.825L404.984 142.013L409.945 149.916C409.039 151.525 408.334 153.24 407.847 155.022L398.664 157.065V165.818L407.847 167.873C408.33 169.668 409.035 171.396 409.945 173.016L404.911 180.967L411.085 187.155L419.019 182.097C420.624 183.008 422.335 183.719 424.113 184.213L426.151 193.404H434.885L436.935 184.213C438.707 183.711 440.413 183.001 442.018 182.097L442.418 182.353V140.64L442.042 140.883ZM430.567 172.797C428.336 172.797 426.154 172.134 424.299 170.891C422.444 169.649 420.998 167.883 420.144 165.817C419.29 163.751 419.067 161.478 419.502 159.284C419.938 157.091 421.012 155.076 422.59 153.495C424.167 151.914 426.178 150.837 428.366 150.401C430.554 149.964 432.823 150.188 434.884 151.044C436.945 151.9 438.707 153.349 439.947 155.208C441.186 157.068 441.848 159.254 441.848 161.49C441.848 164.489 440.659 167.365 438.544 169.485C436.428 171.605 433.559 172.797 430.567 172.797Z" fill="#263238"/>
<path d="M284.689 149.747V131.291L265.28 126.987C264.232 123.235 262.746 119.619 260.853 116.216L263.194 112.568H171.865L174.109 116.216C172.204 119.606 170.725 123.22 169.705 126.975L150.297 131.291V149.747L169.705 154.075C170.724 157.857 172.203 161.499 174.109 164.919L163.519 181.587L176.535 194.633L193.25 183.97C196.649 185.878 200.26 187.376 204.01 188.432L208.304 207.812H226.706L231.048 188.432C234.781 187.37 238.376 185.873 241.759 183.97L258.475 194.633L271.479 181.587L260.901 164.822C262.794 161.427 264.281 157.819 265.329 154.075L284.689 149.747ZM217.608 164.336C212.903 164.338 208.302 162.942 204.389 160.324C200.476 157.705 197.425 153.983 195.622 149.627C193.82 145.27 193.347 140.476 194.264 135.851C195.18 131.225 197.445 126.976 200.771 123.641C204.097 120.305 208.336 118.033 212.951 117.112C217.565 116.191 222.349 116.663 226.696 118.467C231.043 120.271 234.759 123.327 237.374 127.248C239.988 131.169 241.383 135.779 241.383 140.495C241.387 143.626 240.774 146.728 239.581 149.623C238.388 152.517 236.637 155.148 234.429 157.364C232.221 159.58 229.599 161.339 226.713 162.539C223.827 163.74 220.733 164.358 217.608 164.36V164.336Z" fill="#263238"/>
<path d="M162.545 276.478L163.321 261.888L148.183 257.609C147.482 254.579 146.44 251.638 145.077 248.843L154.224 235.968L144.422 225.026L130.764 232.844C128.143 231.196 125.343 229.854 122.418 228.844L119.798 213.282L105.242 212.504L101.02 227.725C98.0113 228.399 95.095 229.436 92.3349 230.813L79.501 221.646L68.5837 231.47L76.3471 245.22C74.6779 247.83 73.3335 250.635 72.3441 253.573L67.9165 254.302V274.131L71.1311 275.043C71.81 278.068 72.8528 280.999 74.2364 283.772L67.8438 292.611L68.2683 300.209L74.7823 307.504L88.5138 299.735C91.1282 301.422 93.9391 302.782 96.8837 303.784L99.3826 318.725L99.5039 319.345L114.06 320.124L114.448 318.725L118.282 304.914C121.305 304.235 124.236 303.198 127.015 301.826L139.825 310.981L150.742 301.17L143.003 287.407C144.655 284.799 145.983 281.998 146.958 279.067L162.545 276.478ZM123.728 253.609C121.228 250.819 117.958 248.836 114.332 247.91C110.707 246.983 106.888 247.156 103.36 248.405C99.8327 249.654 96.7539 251.924 94.5137 254.928C92.2736 257.931 90.9727 261.533 90.7757 265.278C90.5787 269.023 91.4944 272.742 93.407 275.965C95.3196 279.188 98.1431 281.77 101.52 283.384C104.897 284.998 108.676 285.572 112.379 285.033C116.082 284.494 119.542 282.866 122.321 280.356C126.046 276.997 128.29 272.294 128.558 267.279C128.826 262.264 127.098 257.348 123.752 253.609H123.728Z" fill="#263238"/>
<path d="M279.35 254.606C279.917 252.339 280.215 250.013 280.236 247.676L290.741 242.144L287.829 231.458L275.978 232.017C274.779 230.017 273.35 228.164 271.72 226.497L275.238 215.142L265.667 209.647L257.661 218.4C255.401 217.848 253.085 217.554 250.759 217.525L245.216 206.984L234.577 209.939L235.147 221.829C233.148 223.031 231.296 224.463 229.628 226.096L218.286 222.583L212.803 232.163L221.586 240.163C221.017 242.425 220.724 244.748 220.712 247.08L210.195 252.636L213.094 263.311L224.97 262.752C226.149 264.759 227.571 266.613 229.204 268.271L225.674 279.578L235.244 285.073L243.214 276.393C245.477 276.954 247.798 277.244 250.128 277.256L255.708 287.748L266.347 284.854L265.886 274.69L265.801 272.952C267.823 271.762 269.693 270.329 271.368 268.685L282.71 272.21L287.393 264.004L288.193 262.618L279.35 254.606ZM254.192 261.086C251.474 261.825 248.599 261.741 245.93 260.843C243.26 259.945 240.916 258.274 239.194 256.041C237.472 253.809 236.449 251.114 236.254 248.299C236.059 245.483 236.701 242.673 238.1 240.224C239.498 237.774 241.59 235.795 244.11 234.536C246.63 233.278 249.466 232.796 252.26 233.153C255.053 233.509 257.678 234.688 259.803 236.539C261.928 238.391 263.458 240.832 264.199 243.555C264.692 245.364 264.824 247.254 264.588 249.115C264.351 250.975 263.751 252.771 262.822 254.399C261.892 256.028 260.652 257.456 259.171 258.604C257.69 259.751 255.998 260.595 254.192 261.086Z" fill="#263238"/>
<path d="M401.091 273.377L403.517 258.727L388.73 252.758C388.383 249.638 387.671 246.569 386.608 243.616L397.246 231.725L388.633 219.641L373.943 225.89C371.499 223.935 368.832 222.278 365.998 220.954L365.149 204.978L350.52 202.547L344.527 217.318C341.427 217.682 338.379 218.4 335.442 219.458L323.542 208.784L311.509 217.44L317.756 232.151C316.038 234.301 314.546 236.623 313.304 239.081C313.134 239.421 312.952 239.762 312.807 240.102L296.867 240.989L294.441 255.579L296.867 256.551L309.253 261.56C309.599 264.67 310.316 267.727 311.387 270.666L300.725 282.593L309.35 294.666L324.052 288.392C326.474 290.369 329.13 292.039 331.96 293.365L332.785 309.267L347.414 311.698L353.383 297.036C356.495 296.699 359.554 295.98 362.492 294.897L374.38 305.583L386.438 296.927L380.178 282.204C382.174 279.758 383.86 277.076 385.2 274.216L401.091 273.377ZM360.091 272.721C357.014 274.935 353.352 276.184 349.567 276.311C345.782 276.438 342.044 275.437 338.827 273.434C335.61 271.431 333.058 268.517 331.493 265.06C329.929 261.603 329.424 257.759 330.04 254.014C330.657 250.269 332.368 246.791 334.957 244.021C337.546 241.251 340.897 239.313 344.586 238.452C348.274 237.591 352.135 237.847 355.679 239.186C359.222 240.525 362.29 242.887 364.494 245.974C367.441 250.109 368.633 255.246 367.808 260.26C366.982 265.273 364.207 269.755 360.091 272.721Z" fill="#263238"/>
<path d="M202.903 164.87H87.8952C79.9363 164.87 73.4844 171.337 73.4844 179.313V338.907C73.4844 346.884 79.9363 353.35 87.8952 353.35H202.903C210.862 353.35 217.313 346.884 217.313 338.907V179.313C217.313 171.337 210.862 164.87 202.903 164.87Z" fill="#10A37F" stroke="#263238" stroke-miterlimit="10"/>
<path opacity="0.2" d="M202.903 164.87H87.8952C79.9363 164.87 73.4844 171.337 73.4844 179.313V338.907C73.4844 346.884 79.9363 353.35 87.8952 353.35H202.903C210.862 353.35 217.313 346.884 217.313 338.907V179.313C217.313 171.337 210.862 164.87 202.903 164.87Z" fill="black"/>
<path d="M230.692 193.551V353.132C230.692 356.966 229.173 360.643 226.468 363.354C223.763 366.065 220.095 367.588 216.269 367.588H101.274C99.3806 367.588 97.5057 367.214 95.7565 366.487C94.0073 365.761 92.4182 364.696 91.0798 363.353C89.7415 362.011 88.6803 360.417 87.9568 358.663C87.2333 356.909 86.8617 355.03 86.8633 353.132V193.551C86.8633 189.72 88.3816 186.046 91.0841 183.338C93.7867 180.629 97.4521 179.107 101.274 179.107H216.269C218.163 179.106 220.038 179.478 221.788 180.203C223.538 180.929 225.128 181.992 226.467 183.333C227.807 184.675 228.869 186.268 229.594 188.021C230.319 189.774 230.692 191.653 230.692 193.551Z" fill="white" stroke="#263238" stroke-linecap="round" stroke-linejoin="round"/>
<path d="M230.692 193.551V202.061H86.8633V193.551C86.8633 189.72 88.3816 186.046 91.0841 183.338C93.7867 180.629 97.4521 179.107 101.274 179.107H216.269C218.163 179.106 220.038 179.478 221.788 180.203C223.538 180.929 225.128 181.992 226.467 183.333C227.807 184.675 228.869 186.268 229.594 188.021C230.319 189.774 230.692 191.653 230.692 193.551Z" fill="#10A37F" stroke="#263238" stroke-miterlimit="10"/>
<path d="M135.786 212.006H100.402V217.951H135.786V212.006Z" fill="#10A37F"/>
<path d="M135.786 265.329H100.402V271.274H135.786V265.329Z" fill="#10A37F"/>
<path d="M135.786 313.693H100.402V319.638H135.786V313.693Z" fill="#10A37F"/>
<path d="M200.902 226.729H100.402V231.093H200.902V226.729Z" fill="#263238"/>
<path d="M182.779 235.081H100.402V239.336H182.779V235.081Z" fill="#263238"/>
<path d="M193.563 243.287H100.402V247.542H193.563V243.287Z" fill="#263238"/>
<path d="M193.563 251.494H100.402V255.749H193.563V251.494Z" fill="#263238"/>
<path d="M200.902 275.092H100.402V279.457H200.902V275.092Z" fill="#263238"/>
<path d="M182.779 283.444H100.402V287.699H182.779V283.444Z" fill="#263238"/>
<path d="M193.563 291.65H100.402V295.906H193.563V291.65Z" fill="#263238"/>
<path d="M200.902 328.196H100.402V332.561H200.902V328.196Z" fill="#263238"/>
<path d="M182.779 336.549H100.402V340.804H182.779V336.549Z" fill="#263238"/>
<path d="M193.563 344.756H100.402V349.011H193.563V344.756Z" fill="#263238"/>
<path d="M392.781 68.4603V132.957C392.782 135.219 392.339 137.46 391.476 139.551C390.612 141.642 389.346 143.542 387.75 145.142C386.153 146.742 384.258 148.011 382.172 148.876C380.086 149.741 377.85 150.186 375.592 150.184H227.384C222.825 150.184 218.453 148.369 215.23 145.138C212.006 141.908 210.195 137.526 210.195 132.957V68.4603C210.195 63.8902 212.006 59.5071 215.229 56.2744C218.452 53.0417 222.824 51.2239 227.384 51.2207H375.604C377.861 51.2223 380.096 51.6695 382.181 52.5367C384.266 53.404 386.16 54.6743 387.755 56.2751C389.35 57.8759 390.615 59.776 391.477 61.8667C392.339 63.9574 392.782 66.1979 392.781 68.4603Z" fill="white" stroke="#222221" stroke-miterlimit="10"/>
<path d="M392.781 68.4603V69.9313H210.195V68.4603C210.195 63.8902 212.006 59.5071 215.229 56.2744C218.452 53.0417 222.824 51.2239 227.384 51.2207H375.604C377.861 51.2223 380.096 51.6695 382.181 52.5367C384.266 53.404 386.16 54.6743 387.755 56.2751C389.35 57.8759 390.615 59.776 391.477 61.8667C392.339 63.9574 392.782 66.1979 392.781 68.4603Z" fill="#10A37F" stroke="#263238" stroke-miterlimit="10"/>
<path d="M235.156 64.4356C236.609 64.4356 237.788 63.2544 237.788 61.7974C237.788 60.3404 236.609 59.1592 235.156 59.1592C233.702 59.1592 232.523 60.3404 232.523 61.7974C232.523 63.2544 233.702 64.4356 235.156 64.4356Z" fill="#263238"/>
<path d="M247.382 64.4356C248.836 64.4356 250.015 63.2544 250.015 61.7974C250.015 60.3404 248.836 59.1592 247.382 59.1592C245.929 59.1592 244.75 60.3404 244.75 61.7974C244.75 63.2544 245.929 64.4356 247.382 64.4356Z" fill="#263238"/>
<path d="M259.613 64.4356C261.067 64.4356 262.245 63.2544 262.245 61.7974C262.245 60.3404 261.067 59.1592 259.613 59.1592C258.159 59.1592 256.98 60.3404 256.98 61.7974C256.98 63.2544 258.159 64.4356 259.613 64.4356Z" fill="#263238"/>
<path d="M281.517 81.7969H221.836V133.503H281.517V81.7969Z" stroke="#263238" stroke-linecap="round" stroke-linejoin="round" stroke-dasharray="4 4"/>
<path d="M359.432 81.7969H290.738V85.432H359.432V81.7969Z" fill="#263238"/>
<path d="M343.432 89.3232H290.738V92.9584H343.432V89.3232Z" fill="#263238"/>
<path d="M369.197 96.8115H290.738V100.483H369.197V96.8115Z" fill="#263238"/>
<path d="M357.552 104.131H290.738V107.802H357.552V104.131Z" fill="#263238"/>
<path d="M306.024 443.366C306.024 443.366 274.133 452.532 269.633 454.113C265.581 455.548 254.603 459.402 246.367 458.21C245.572 458.093 244.786 457.922 244.014 457.699C235.668 455.207 231.883 452.836 230.828 447.621C229.773 442.405 233.885 438.49 237.888 436.01C241.891 433.53 263.604 430.94 263.604 430.94L268.844 432.484L306.024 443.366Z" fill="#10A37F"/>
<path d="M246.418 458.222C245.623 458.105 244.836 457.934 244.064 457.711C235.719 455.219 231.934 452.848 230.879 447.632C229.823 442.417 233.936 438.502 237.939 436.022C241.942 433.542 263.655 430.952 263.655 430.952L268.895 432.496C264.152 434.685 246.466 435.9 242.609 438.125C238.751 440.35 236.883 444.544 239.164 450.21C240.377 453.225 243.579 456.143 246.418 458.222Z" fill="white"/>
<path d="M301.233 444.679C301.233 444.679 277.276 450.891 267.778 454.879C258.28 458.867 240.169 460.593 233.716 452.387C227.263 444.18 232.964 437.117 239.417 435.548C245.871 433.98 258.923 431.488 266.104 432.484" stroke="#263238" stroke-linecap="round" stroke-linejoin="round"/>
<path d="M246.902 457.784C246.902 457.784 234.711 451.085 238.762 441.7C241.746 434.77 258.001 436.277 266.056 432.484" stroke="#263238" stroke-linecap="round" stroke-linejoin="round"/>
<path d="M403.154 459.705C402.826 462.976 401.674 466.112 398.374 468.058C396.179 469.358 393.049 470.136 388.573 470.088C377.389 469.942 356.367 461.93 356.367 461.93L336.68 450.988L346.918 434.746L349.72 430.296L356.998 431.925C356.998 431.925 362.99 435.329 369.019 438.004C375.048 440.678 389.641 441.286 394.832 445.469C400.024 449.651 403.7 454.307 403.154 459.705Z" fill="#10A37F"/>
<path d="M403.15 459.705C402.823 462.975 401.67 466.112 398.371 468.057C399.316 464.808 399.119 461.331 397.813 458.21C395.629 453.261 388.46 448.897 379.047 448.167C369.634 447.438 362.429 443.025 358.656 441.055C355.709 439.523 349.498 436.192 346.914 434.782L349.716 430.332L356.994 431.961C356.994 431.961 362.987 435.365 369.015 438.04C375.044 440.715 389.637 441.323 394.829 445.505C400.021 449.687 403.696 454.307 403.15 459.705Z" fill="white"/>
<path d="M341.045 454.076C355.221 462.338 370.886 467.71 387.14 469.881C390.78 470.307 394.88 470.367 397.281 467.668C397.921 466.89 398.397 465.99 398.683 465.023C398.968 464.056 399.057 463.041 398.943 462.039C398.507 456.97 394.249 452.958 389.591 450.939C384.933 448.921 379.79 448.508 374.84 447.292C369.902 446.207 365.126 444.478 360.636 442.149C357.082 440.289 353.637 438.028 349.718 437.201C345.8 436.375 341.118 437.384 339.02 440.849" stroke="#263238" stroke-linecap="round" stroke-linejoin="round"/>
<path d="M395.957 469.018C397.799 468.137 399.41 466.835 400.661 465.218C401.913 463.601 402.769 461.713 403.162 459.705C403.866 454.927 401.161 450.125 397.34 447.183C393.518 444.241 388.739 442.867 383.996 441.894C379.253 440.922 374.462 440.241 369.974 438.49C363.071 435.791 356.266 430.454 349.109 432.411" stroke="#263238" stroke-linecap="round" stroke-linejoin="round"/>
<path d="M363.254 283.346L329.944 270.641L329.531 270.483C329.531 270.483 329.653 269.596 329.75 268.307C329.956 265.645 330.065 261.304 328.816 259.797C326.96 257.621 321.695 259.444 316.564 257.086C311.433 254.727 301.935 258.946 301.935 258.946C301.935 258.946 295.081 257.73 292.061 262.593C290.52 266.593 291.054 272.55 291.054 272.55L290.423 272.781C286.457 274.264 264.865 282.41 260.292 285.68C255.245 289.267 249.666 326.044 247.87 336.84C246.075 347.636 242.885 357.374 244.51 361.094C246.136 364.815 269.329 382.711 282.672 387.331C296.015 391.951 343.324 390.601 343.324 390.601C343.324 390.601 344.1 390.394 345.471 389.957C353.477 387.379 381.862 376.766 396.952 351.733C396.988 351.818 382.395 303.844 363.254 283.346ZM273.259 345.204C270.833 346.943 272.119 353.715 272.119 353.715L267.946 350.067L278.414 324.22L282.878 344.025C282.878 344.025 275.709 343.478 273.259 345.204ZM356.958 361.593C355.806 362.189 360.27 349.788 358.171 347.004C356.073 344.22 349.68 344.463 349.68 344.463L350.226 341.071L353.998 321.679L355.211 320.184C355.211 320.184 368.167 342.445 370.483 350.286C370.556 350.262 356.388 361.593 357.007 361.593H356.958Z" fill="#10A37F"/>
<path d="M300.371 202.875L283.17 221.172C283.17 221.172 280.805 223.276 281.751 228.576C282.697 233.877 284.88 238.436 286.542 238.801C287.856 239.032 289.187 239.15 290.521 239.153C290.521 239.153 294.16 247.153 296.817 250.302C296.817 250.302 297.726 262.654 297.241 266.107C297.241 266.107 303.415 271.517 309.238 272.186C315.061 272.855 324.037 263.943 324.037 263.943L326.269 253.001C326.269 253.001 331.546 244.977 331.897 242.849C332.249 240.722 334.675 241.257 335.852 240.199C337.029 239.141 339.782 234.436 340.231 229.987C340.68 225.537 340.716 220.419 335.561 221.914C331.085 220.698 333.887 211.239 333.887 211.239L326.063 204.273L300.371 202.875Z" fill="white"/>
<path opacity="0.5" d="M329.942 270.641C329.689 271.324 329.393 271.99 329.057 272.635C326.218 277.997 313.858 288.209 313.858 288.209L310.121 276.696L308.072 288.209C303.947 286.41 291.368 275.48 291.368 275.48C291.368 275.48 290.943 274.459 290.422 272.866L291.053 272.635C291.053 272.635 290.519 266.678 292.059 262.678C295.08 257.718 301.934 259.031 301.934 259.031C301.934 259.031 311.432 254.812 316.563 257.171C321.694 259.529 326.958 257.706 328.814 259.882C330.67 262.058 329.53 270.532 329.53 270.532L329.942 270.641Z" fill="white"/>
<path opacity="0.2" d="M363.253 283.346L329.943 270.641L329.531 270.483C329.531 270.483 329.652 269.595 329.749 268.307L329.058 272.635L324.133 279.346C329.393 281.281 334.526 283.547 339.502 286.13C341.897 287.407 343.853 289.377 345.114 291.784C346.376 294.191 346.884 296.924 346.574 299.625L340.424 352.255L337.913 382.139L345.506 390.041C353.512 387.464 381.897 376.85 396.987 351.818C396.987 351.818 382.395 303.843 363.253 283.346ZM357.006 361.592C355.854 362.188 360.318 349.787 358.219 347.003C356.12 344.219 349.728 344.462 349.728 344.462L350.274 341.07L354.046 321.679L355.259 320.183C355.259 320.183 368.214 342.444 370.531 350.286C370.556 350.261 356.387 361.592 357.006 361.592Z" fill="black"/>
<path opacity="0.2" d="M285.134 346.979L279.966 329.63C279.966 329.63 270.687 297.874 264.318 290.045L265.992 312.379C265.992 312.379 260.521 339.052 255.463 346.979C250.405 354.906 249.313 356.876 255.463 356.876C261.613 356.876 276.57 368.827 276.57 368.827L275.417 358.857L285.134 346.979ZM272.118 353.69L267.945 350.043L278.414 324.22L282.878 344.025C282.878 344.025 275.709 343.49 273.258 345.241C270.808 346.991 272.118 353.69 272.118 353.69Z" fill="black"/>
<path d="M296.816 250.302C296.816 250.302 297.775 259.651 296.816 263.93" stroke="#263238" stroke-linecap="round" stroke-linejoin="round"/>
<path d="M324.996 262.678C325.012 259.657 325.37 256.647 326.064 253.706" stroke="#263238" stroke-linecap="round" stroke-linejoin="round"/>
<path d="M327.496 209.853C327.496 209.853 333.136 216.965 332.845 222.326C332.554 227.688 332.13 234.083 332.275 240.32C332.421 246.557 322.28 259.626 317.064 260.793C311.848 261.96 307.359 262.24 304.036 258.897C300.712 255.553 297.376 250.921 293.034 244.964C288.691 239.007 289.673 225.961 289.673 225.961" stroke="#263238" stroke-linecap="round" stroke-linejoin="round"/>
<path d="M313.935 230.934C313.596 232.889 313.45 234.872 313.499 236.855C313.369 238.54 313.871 240.214 314.906 241.548C315.537 242.18 316.446 242.691 316.556 243.578C316.557 243.981 316.443 244.376 316.228 244.716C316.014 245.056 315.706 245.328 315.343 245.499C314.636 245.856 313.955 246.263 313.305 246.715" stroke="#263238" stroke-linecap="round" stroke-linejoin="round"/>
<path d="M304.93 247.348C304.93 247.348 305.585 251.566 311.225 252.442" stroke="#263238" stroke-linecap="round" stroke-linejoin="round"/>
<path d="M305.512 234.156C305.512 235.372 304.99 236.357 304.299 236.357C303.608 236.357 303.086 235.372 303.086 234.156C303.086 232.94 303.608 231.943 304.299 231.943C304.99 231.943 305.512 232.928 305.512 234.156Z" fill="#263238"/>
<path d="M322.352 234.679C322.352 235.895 321.83 236.892 321.139 236.892C320.447 236.892 319.926 235.895 319.926 234.679C319.926 233.463 320.447 232.478 321.139 232.478C321.83 232.478 322.352 233.463 322.352 234.679Z" fill="#263238"/>
<path d="M318.953 229.39C318.953 229.39 324.424 223.895 329.058 230.022" stroke="#263238" stroke-width="2" stroke-linecap="round" stroke-linejoin="round"/>
<path d="M307.382 229.391C307.382 229.391 303.9 225.488 298.43 229.391" stroke="#263238" stroke-width="2" stroke-linecap="round" stroke-linejoin="round"/>
<path d="M297.241 255.444C297.241 255.444 300.589 264.709 308.073 267.335C315.558 269.961 325.505 256.32 325.505 256.32L324.995 254.545C324.995 254.545 318.481 263.055 311.227 261.584C303.973 260.113 296.816 250.302 296.816 250.302L297.241 255.444Z" fill="#263238"/>
<path d="M290.521 238.801C290.521 238.801 286.033 240.333 284.82 236.892C283.607 233.451 279.568 224.224 283.122 221.172C286.676 218.121 289.551 225.208 289.551 225.208" stroke="#263238" stroke-linecap="round" stroke-linejoin="round"/>
<path d="M332.262 240.697C332.262 240.697 336.41 241.536 337.599 238.047C338.788 234.557 342.852 225.391 339.297 222.327C335.743 219.263 332.868 226.363 332.868 226.363" stroke="#263238" stroke-linecap="round" stroke-linejoin="round"/>
<path d="M289.6 234.156C291.152 233.907 292.552 233.077 293.518 231.834C294.112 230.739 294.498 229.544 294.658 228.308C295.059 225.967 295.266 223.596 295.277 221.22C295.223 220.294 295.305 219.364 295.519 218.461C295.847 217.557 296.355 216.73 297.011 216.029C298.576 214.193 300.444 212.649 301.924 210.753C302.723 209.851 303.328 208.794 303.701 207.648C304.075 206.502 304.209 205.291 304.096 204.09C307.499 206.903 311.477 208.934 315.748 210.041C320.019 211.148 324.48 211.304 328.817 210.497C336.665 208.953 344.21 202.048 343.289 193.367C343.117 191.901 342.491 190.526 341.499 189.435C340.507 188.345 339.198 187.594 337.757 187.288C333.875 186.328 330.382 188.395 326.84 189.72C320.423 192.151 314.152 187.981 307.674 187.288C302.13 186.693 295.325 187.386 292.438 192.905C292.438 192.905 282.479 194.121 278.125 202.279C273.77 210.437 282.055 221.816 282.055 221.816C282.055 221.816 285.391 217.768 289.673 225.962L289.6 234.156Z" fill="#263238"/>
<path d="M328.112 207.75C328.112 207.75 325.541 221.196 332.261 227.713C332.261 227.713 333.729 223.664 335.221 222.679C336.285 220.289 336.731 217.668 336.519 215.059C336.307 212.45 335.443 209.936 334.008 207.75C329.131 199.932 328.112 207.75 328.112 207.75Z" fill="#263238"/>
<path opacity="0.2" d="M340.427 192.455C339.838 194.285 338.842 195.958 337.514 197.346C336.186 198.734 334.561 199.801 332.761 200.467C323.433 204.285 314.383 200.054 305.043 199.251C297.413 198.583 288.995 205.464 288.461 213.318" stroke="white" stroke-linecap="round" stroke-linejoin="round"/>
<path opacity="0.2" d="M282.672 211.227C282.794 208.127 283.792 205.125 285.551 202.572C287.31 200.019 289.757 198.02 292.607 196.808" stroke="white" stroke-linecap="round" stroke-linejoin="round"/>
<path d="M294.668 262.678C298.772 266.981 303.731 270.373 309.224 272.635C309.224 272.635 320.384 269.389 326.061 261.584" stroke="#263238" stroke-linecap="round" stroke-linejoin="round"/>
<path d="M301.948 244.052C307.402 244.052 311.822 239.622 311.822 234.156C311.822 228.691 307.402 224.26 301.948 224.26C296.495 224.26 292.074 228.691 292.074 234.156C292.074 239.622 296.495 244.052 301.948 244.052Z" stroke="#263238" stroke-linecap="round" stroke-linejoin="round"/>
<path d="M324.015 244.053C329.468 244.053 333.889 239.622 333.889 234.156C333.889 228.691 329.468 224.26 324.015 224.26C318.561 224.26 314.141 228.691 314.141 234.156C314.141 239.622 318.561 244.053 324.015 244.053Z" stroke="#263238" stroke-linecap="round" stroke-linejoin="round"/>
<path d="M296.817 258.982C295.822 259.243 294.889 259.699 294.073 260.326C293.256 260.952 292.573 261.735 292.062 262.63C290.315 265.706 291.371 275.42 291.371 275.42C291.371 275.42 300.396 284.38 308.074 288.149L310.294 275.42L313.812 288.197C313.812 288.197 325.724 279.76 329.011 272.635C329.011 272.635 330.091 264.32 329.011 261.584C328.76 260.835 328.283 260.183 327.647 259.717C327.01 259.251 326.245 258.994 325.457 258.982" stroke="#263238" stroke-linecap="round" stroke-linejoin="round"/>
<path d="M282.673 344.439C282.673 344.439 279.155 320.743 274.461 311.078" stroke="#263238" stroke-linecap="round" stroke-linejoin="round"/>
<path d="M264.305 290.045C267.026 293.946 269.459 298.042 271.583 302.3" stroke="#263238" stroke-linecap="round" stroke-linejoin="round"/>
<path d="M357.008 307.735C357.958 303.773 359.257 299.904 360.889 296.173" stroke="#263238" stroke-linecap="round" stroke-linejoin="round"/>
<path d="M349.719 344.439C349.719 344.439 352.266 328.196 355.299 314.811" stroke="#263238" stroke-linecap="round" stroke-linejoin="round"/>
<path d="M354.035 321.643C356.489 318.378 359.946 316.011 363.873 314.907" stroke="#263238" stroke-linecap="round" stroke-linejoin="round"/>
<path d="M329.543 270.483C329.543 270.483 350.031 278.678 363.265 283.346C363.265 283.346 379.532 298.677 396.988 351.818C396.988 351.818 380.988 378.772 350.577 387.416" stroke="#263238" stroke-linecap="round" stroke-linejoin="round"/>
<path d="M355.867 362.553L370.557 350.262C370.557 350.262 378.333 344.329 386.411 348.39" stroke="#263238" stroke-linecap="round" stroke-linejoin="round"/>
<path d="M355.297 320.159C355.297 320.159 367.427 338.104 370.557 350.262" stroke="#263238" stroke-linecap="round" stroke-linejoin="round"/>
<path d="M272.252 354.371L267.958 350.262C267.958 350.262 261.565 349.143 254.348 353.994" stroke="#263238" stroke-linecap="round" stroke-linejoin="round"/>
<path d="M267.961 350.262C267.961 350.262 273.298 332.67 278.563 323.601" stroke="#263238" stroke-linecap="round" stroke-linejoin="round"/>
<path d="M291.054 272.635C291.054 272.635 261.565 283.723 258.678 286.944C255.791 290.166 244.789 352.182 244.51 359.282C244.255 365.629 267.218 379.95 278.56 385.896" stroke="#263238" stroke-linecap="round" stroke-linejoin="round"/>
<path d="M397.802 228.527H364.201C360.235 228.527 357.02 231.75 357.02 235.725V255.481C357.02 259.456 360.235 262.678 364.201 262.678H397.802C401.768 262.678 404.983 259.456 404.983 255.481V235.725C404.983 231.75 401.768 228.527 397.802 228.527Z" fill="white" stroke="#263238" stroke-linecap="round" stroke-linejoin="round"/>
<path d="M372.485 238.801L363.266 244.6L371.83 252.211" stroke="#263238" stroke-linecap="round" stroke-linejoin="round"/>
<path d="M389.298 252.758L397.583 245.682L388.012 239.396" stroke="#263238" stroke-linecap="round" stroke-linejoin="round"/>
<path d="M376.973 257.11L383.778 235.725" stroke="#263238" stroke-linecap="round" stroke-linejoin="round"/>
<path d="M313.097 293.583C313.097 293.968 312.982 294.345 312.769 294.665C312.555 294.985 312.251 295.234 311.896 295.381C311.54 295.528 311.149 295.566 310.773 295.49C310.396 295.414 310.05 295.227 309.779 294.954C309.508 294.681 309.324 294.333 309.251 293.955C309.177 293.577 309.217 293.185 309.366 292.83C309.515 292.475 309.765 292.172 310.086 291.96C310.407 291.747 310.783 291.635 311.168 291.638C311.68 291.641 312.171 291.847 312.532 292.212C312.894 292.576 313.097 293.069 313.097 293.583Z" fill="#263238"/>
<path d="M347.217 397.421H280.112C279.906 397.421 279.703 397.381 279.513 397.302C279.323 397.223 279.151 397.108 279.005 396.962C278.86 396.816 278.745 396.643 278.666 396.453C278.587 396.263 278.547 396.059 278.547 395.853C278.547 395.436 278.711 395.036 279.004 394.74C279.298 394.444 279.696 394.276 280.112 394.272H347.217C347.635 394.272 348.036 394.439 348.332 394.735C348.627 395.032 348.794 395.434 348.794 395.853C348.79 396.27 348.623 396.669 348.327 396.963C348.032 397.256 347.633 397.421 347.217 397.421Z" fill="#263238"/>
<path d="M349.559 392.194L358.56 349.873C358.7 349.216 358.691 348.537 358.534 347.884C358.377 347.231 358.077 346.622 357.654 346.101C357.232 345.58 356.699 345.16 356.094 344.872C355.488 344.585 354.827 344.436 354.157 344.438H275.771C275.106 344.436 274.45 344.582 273.848 344.866C273.247 345.149 272.716 345.563 272.293 346.077C271.871 346.591 271.567 347.193 271.405 347.839C271.243 348.485 271.226 349.159 271.355 349.812L279.422 390.723C279.616 391.732 280.149 392.645 280.932 393.308C281.716 393.972 282.703 394.347 283.728 394.37L345.071 395.78C346.12 395.804 347.144 395.458 347.964 394.803C348.785 394.147 349.349 393.224 349.559 392.194Z" fill="white" stroke="#263238" stroke-linecap="round" stroke-linejoin="round"/>
<path d="M320.956 368.827C320.956 370.068 320.589 371.281 319.901 372.312C319.213 373.344 318.236 374.148 317.092 374.623C315.948 375.098 314.69 375.222 313.476 374.98C312.261 374.738 311.146 374.14 310.271 373.263C309.395 372.386 308.799 371.268 308.558 370.051C308.316 368.834 308.44 367.573 308.914 366.426C309.388 365.28 310.19 364.3 311.219 363.611C312.249 362.922 313.459 362.554 314.697 362.554C315.519 362.554 316.333 362.716 317.092 363.031C317.851 363.347 318.541 363.809 319.123 364.391C319.704 364.974 320.165 365.665 320.48 366.426C320.794 367.187 320.956 368.003 320.956 368.827Z" fill="#263238"/>
<path d="M333.258 348.45H342.574" stroke="#263238" stroke-linecap="round" stroke-linejoin="round"/>
<path d="M288.773 348.45H324.133" stroke="#263238" stroke-linecap="round" stroke-linejoin="round"/>
<path d="M349.717 437.092L342.572 455.9C342.572 455.9 324.377 451.292 301.002 446.502C276.583 441.481 251.073 434.989 237.851 411.731C236.238 408.899 235.158 405.543 235.923 402.37C237.827 394.334 248.259 392.158 255.125 391.343C259.449 390.881 263.793 390.638 268.141 390.613C270.348 390.613 277.651 389.398 279.422 390.723C282.087 392.67 284.93 394.359 287.913 395.768C291.819 397.422 348.807 394.273 348.807 394.273C349.795 392.109 350.398 389.788 350.59 387.416C359.555 382.857 380.298 378.991 389.056 380.693C402.836 383.38 410.89 391.44 409.35 399.878C407.809 408.315 377.386 430.953 349.717 437.092Z" fill="#263238"/>
<path d="M349.717 437.091C349.717 437.091 332.383 432.496 318.178 422.904C303.973 413.311 292.947 402.175 273.211 404.485" stroke="white" stroke-linecap="round" stroke-linejoin="round"/>
<path d="M314.965 420.643C323.917 418.053 330.48 412.254 337.661 406.686C345.228 400.6 353.35 395.243 361.921 390.687" stroke="white" stroke-linecap="round" stroke-linejoin="round"/>
<path d="M311.82 235.725H314.44" stroke="#263238" stroke-linecap="round" stroke-linejoin="round"/>
</g>
<defs>
<clipPath id="clip0_169_536">
<rect width="509" height="475" fill="white"/>
</clipPath>
</defs>
</svg>
