<svg width="35" height="37" viewBox="0 0 35 37" fill="none" xmlns="http://www.w3.org/2000/svg">
<path d="M23.6235 21.0453C23.902 20.4951 24.0861 20.0943 24.3025 19.711C26.5112 15.8225 28.7349 11.9415 30.9312 8.04305C31.7122 6.65644 31.6127 5.40178 30.6949 4.34627C29.8169 3.33805 28.6603 2.93228 27.4614 3.44012C26.6814 3.79171 26.0209 4.36362 25.5611 5.08562C24.2826 7.11699 23.1335 9.2305 21.9794 11.3366C21.4819 12.2278 20.87 12.6559 19.8104 12.6485C13.8857 12.6111 7.96091 12.636 2.03616 12.6261C0.140831 12.6261 -0.50587 11.5233 0.41692 9.86281C1.64565 7.65387 2.89676 5.45903 4.17026 3.2783C5.37163 1.22453 7.20228 0.0744211 9.56274 0.0420586C13.5822 -0.032624 17.6017 0.0221425 21.6212 0.0296108C21.792 0.0607143 21.9589 0.110814 22.1186 0.178977C21.5913 1.11251 21.1511 2.03857 20.5591 2.8551C20.3626 3.12645 19.7731 3.2086 19.3627 3.21358C16.4202 3.24345 13.4778 3.26337 10.5353 3.21358C8.73944 3.1862 7.43858 3.83095 6.61528 5.48642C5.97853 6.76598 5.21742 7.97584 4.40656 9.41472H13.6991C15.2338 9.41472 16.766 9.37738 18.2981 9.43215C19.0443 9.45953 19.497 9.22304 19.8627 8.53845C20.773 6.82075 21.7605 5.14039 22.7405 3.45754C24.6482 0.176487 28.3518 -0.928813 31.4784 0.833696C34.6049 2.5962 35.5824 6.38759 33.7418 9.67362C31.8191 13.1065 29.8293 16.4996 27.934 19.9499C27.4738 20.7864 26.9788 21.1947 26.0063 21.0702C25.2725 20.9731 24.5313 21.0453 23.6235 21.0453Z" fill="white"/>
<path d="M30.2572 26.761C25.3149 26.761 20.6338 26.7436 15.9552 26.7983C15.5895 26.7983 15.1045 27.229 14.8856 27.59C13.8559 29.2877 12.9107 31.0403 11.9009 32.758C9.99808 36.0216 6.25966 37.107 3.14307 35.3221C0.0264781 33.5372 -0.903774 29.7607 0.94678 26.4623C2.83216 23.1015 4.79215 19.7831 6.63524 16.4C7.15509 15.4441 7.71473 14.9387 8.83899 15.1055C9.48569 15.2001 10.1598 15.123 11.0403 15.123C10.7766 15.6358 10.5975 16.0266 10.3886 16.3975C8.17986 20.2885 5.94875 24.167 3.76241 28.0704C2.54612 30.2387 3.62312 32.6012 5.93382 32.8825C7.36651 33.0567 8.40869 32.397 9.10762 31.1623C10.2941 29.0737 11.5128 27.0025 12.6495 24.8865C13.1893 23.8907 13.8932 23.5048 15.0398 23.5148C20.8427 23.5596 26.6431 23.5322 32.451 23.5372C34.595 23.5372 35.2218 24.6076 34.1697 26.4722C32.9683 28.6007 31.762 30.7266 30.5333 32.8402C29.3941 34.8043 27.6778 36.0465 25.4144 36.1063C21.186 36.2208 16.9774 36.1386 12.4804 36.1386C13.0873 35.0732 13.5549 34.1297 14.1519 33.2783C14.326 33.0293 14.8732 32.9596 15.2513 32.9572C18.2758 32.9298 21.3004 32.9148 24.3249 32.9572C25.9815 32.9771 27.1878 32.3572 27.9713 30.866C28.6479 29.5491 29.4065 28.2746 30.2572 26.761Z" fill="white"/>
</svg>
