<svg width="175" height="38" viewBox="0 0 175 38" fill="none" xmlns="http://www.w3.org/2000/svg">
<path d="M23.6235 21.9569C23.902 21.4067 24.0861 21.0059 24.3025 20.6226C26.5112 16.7341 28.7349 12.8531 30.9312 8.95467C31.7122 7.56807 31.6127 6.3134 30.6949 5.25789C29.8169 4.24967 28.6603 3.8439 27.4614 4.35174C26.6814 4.70333 26.0209 5.27524 25.5611 5.99724C24.2826 8.02861 23.1335 10.1421 21.9794 12.2482C21.4819 13.1394 20.87 13.5676 19.8104 13.5601C13.8857 13.5228 7.96091 13.5477 2.03616 13.5377C0.140831 13.5377 -0.50587 12.4349 0.41692 10.7744C1.64565 8.56549 2.89676 6.37066 4.17026 4.18992C5.37163 2.13615 7.20228 0.986042 9.56274 0.95368C13.5822 0.878997 17.6017 0.933764 21.6212 0.941232C21.792 0.972335 21.9589 1.02244 22.1186 1.0906C21.5913 2.02413 21.1511 2.95019 20.5591 3.76672C20.3626 4.03807 19.7731 4.12022 19.3627 4.1252C16.4202 4.15507 13.4778 4.17499 10.5353 4.1252C8.73944 4.09782 7.43858 4.74257 6.61528 6.39804C5.97853 7.6776 5.21742 8.88746 4.40656 10.3263H13.6991C15.2338 10.3263 16.766 10.289 18.2981 10.3438C19.0443 10.3712 19.497 10.1347 19.8627 9.45007C20.773 7.73237 21.7605 6.05201 22.7405 4.36916C24.6482 1.08811 28.3518 -0.0171917 31.4784 1.74532C34.6049 3.50783 35.5824 7.29921 33.7418 10.5852C31.8191 14.0182 29.8293 17.4112 27.934 20.8616C27.4738 21.698 26.9788 22.1063 26.0063 21.9818C25.2725 21.8847 24.5313 21.9569 23.6235 21.9569Z" fill="white"/>
<path d="M30.2572 27.6726C25.3149 27.6726 20.6338 27.6552 15.9552 27.71C15.5895 27.71 15.1045 28.1406 14.8856 28.5016C13.8559 30.1994 12.9107 31.9519 11.9009 33.6696C9.99808 36.9333 6.25966 38.0186 3.14307 36.2337C0.0264781 34.4488 -0.903774 30.6724 0.94678 27.3739C2.83216 24.0132 4.79215 20.6948 6.63524 17.3117C7.15509 16.3557 7.71473 15.8504 8.83899 16.0172C9.48569 16.1117 10.1598 16.0346 11.0403 16.0346C10.7766 16.5474 10.5975 16.9382 10.3886 17.3092C8.17986 21.2001 5.94875 25.0786 3.76241 28.982C2.54612 31.1503 3.62312 33.5128 5.93382 33.7941C7.36651 33.9683 8.40869 33.3087 9.10762 32.0739C10.2941 29.9853 11.5128 27.9141 12.6495 25.7981C13.1893 24.8023 13.8932 24.4164 15.0398 24.4264C20.8427 24.4712 26.6431 24.4438 32.451 24.4488C34.595 24.4488 35.2218 25.5193 34.1697 27.3838C32.9683 29.5123 31.762 31.6383 30.5333 33.7518C29.3941 35.7159 27.6778 36.9581 25.4144 37.0179C21.186 37.1324 16.9774 37.0503 12.4804 37.0503C13.0873 35.9848 13.5549 35.0413 14.1519 34.1899C14.326 33.941 14.8732 33.8713 15.2513 33.8688C18.2758 33.8414 21.3004 33.8265 24.3249 33.8688C25.9815 33.8887 27.1878 33.2688 27.9713 31.7777C28.6479 30.4608 29.4065 29.1862 30.2572 27.6726Z" fill="white"/>
<path d="M52.668 29.3103V28.8377L63.1931 11.5106H53.2408V8.68961H68.334V9.17648L57.8661 26.475H68.1478V29.3103H52.668Z" fill="white"/>
<path d="M72.0703 29.3103V8.68961H75.0632V29.3103H72.0703Z" fill="white"/>
<path d="M87.9697 29.7399C85.9076 29.7399 84.1511 29.2912 82.7 28.3938C81.2489 27.4869 80.1367 26.2267 79.3634 24.6134C78.5997 23 78.2178 21.1288 78.2178 19C78.2178 16.8711 78.5997 14.9999 79.3634 13.3865C80.1367 11.7732 81.2489 10.5178 82.7 9.6204C84.1511 8.71347 85.9076 8.26001 87.9697 8.26001C90.0222 8.26001 91.774 8.71347 93.2251 9.6204C94.6858 10.5178 95.7979 11.7732 96.5617 13.3865C97.3254 14.9999 97.7073 16.8711 97.7073 19C97.7073 21.1288 97.3254 23 96.5617 24.6134C95.7979 26.2267 94.6858 27.4869 93.2251 28.3938C91.774 29.2912 90.0222 29.7399 87.9697 29.7399ZM87.9697 26.8902C89.4303 26.9093 90.6428 26.5895 91.607 25.9308C92.5807 25.2625 93.311 24.3365 93.7979 23.1527C94.2848 21.9594 94.5282 20.5751 94.5282 19C94.5282 17.4248 94.2848 16.05 93.7979 14.8758C93.311 13.692 92.5807 12.7708 91.607 12.1121C90.6428 11.4534 89.4303 11.1192 87.9697 11.1097C86.5091 11.0906 85.2919 11.4104 84.3181 12.0691C83.3539 12.7278 82.6284 13.6538 82.1415 14.8472C81.6546 16.0405 81.4064 17.4248 81.3969 19C81.3873 20.5751 81.626 21.9546 82.1129 23.1384C82.5997 24.3126 83.3301 25.2291 84.3038 25.8878C85.2871 26.5466 86.5091 26.8807 87.9697 26.8902Z" fill="white"/>
<path d="M100.564 29.3103V8.68961H103.599L113.752 24.0119V8.68961H116.788V29.3103H113.752L103.599 13.9737V29.3103H100.564Z" fill="white"/>
<path d="M129.219 29.7399C127.835 29.7399 126.561 29.5012 125.396 29.0239C124.231 28.537 123.219 27.8306 122.36 26.9045C121.501 25.9785 120.833 24.852 120.355 23.525C119.878 22.1981 119.639 20.6897 119.639 19C119.639 16.7756 120.045 14.8663 120.857 13.272C121.668 11.6682 122.794 10.4366 124.236 9.57744C125.678 8.7087 127.339 8.27433 129.219 8.27433C131.644 8.27433 133.577 8.83758 135.019 9.96408C136.47 11.0906 137.458 12.6467 137.983 14.6324L134.947 15.1765C134.527 13.945 133.849 12.9617 132.914 12.2266C131.978 11.4915 130.804 11.1192 129.391 11.1097C127.931 11.1001 126.713 11.4247 125.74 12.0834C124.775 12.7421 124.05 13.6682 123.563 14.8615C123.076 16.0453 122.828 17.4248 122.818 19C122.809 20.5751 123.047 21.9546 123.534 23.1384C124.021 24.3126 124.752 25.2291 125.725 25.8878C126.709 26.5466 127.931 26.8807 129.391 26.8902C130.565 26.9093 131.573 26.6945 132.413 26.2458C133.262 25.7876 133.935 25.1193 134.432 24.241C134.928 23.3628 135.248 22.284 135.391 21.0047H131.382V18.599H138.57C138.589 18.7708 138.604 19 138.613 19.2863C138.623 19.5632 138.628 19.7398 138.628 19.8162C138.628 21.7255 138.26 23.4296 137.525 24.9284C136.79 26.4272 135.721 27.6062 134.317 28.4654C132.914 29.3151 131.215 29.7399 129.219 29.7399Z" fill="white"/>
<path d="M141.482 29.3103V8.68961H149.816C150.016 8.68961 150.265 8.69915 150.561 8.71825C150.856 8.72779 151.138 8.75643 151.405 8.80417C152.551 8.98555 153.506 9.37696 154.269 9.9784C155.043 10.5798 155.62 11.3388 156.002 12.2553C156.384 13.1717 156.575 14.1837 156.575 15.2911C156.575 16.408 156.384 17.4248 156.002 18.3412C155.62 19.2577 155.043 20.0167 154.269 20.6181C153.506 21.2195 152.551 21.611 151.405 21.7923C151.138 21.8305 150.852 21.8592 150.546 21.8783C150.25 21.8973 150.007 21.9069 149.816 21.9069H144.475V29.3103H141.482ZM144.475 19.0716H149.701C149.892 19.0716 150.102 19.062 150.331 19.0429C150.57 19.0238 150.794 18.9904 151.004 18.9427C151.615 18.7995 152.107 18.5369 152.479 18.1551C152.852 17.7637 153.119 17.315 153.281 16.809C153.444 16.303 153.525 15.7971 153.525 15.2911C153.525 14.7851 153.444 14.2839 153.281 13.7875C153.119 13.2815 152.852 12.8376 152.479 12.4557C152.107 12.0643 151.615 11.797 151.004 11.6538C150.794 11.5966 150.57 11.5584 150.331 11.5393C150.102 11.5202 149.892 11.5106 149.701 11.5106H144.475V19.0716Z" fill="white"/>
<path d="M164.578 29.3103V11.5106H157.719V8.68961H174.43V11.5106H167.571V29.3103H164.578Z" fill="white"/>
</svg>
